<?xml version="1.0" encoding="UTF-8" standalone="no"?>
<svg
   version="1.1"
   id="games"
   viewBox="200 0 560 560"
   sodipodi:docname="ningames.svg"
   inkscape:version="1.1.1 (3bf5ae0d25, 2021-09-20)"
   xmlns:inkscape="http://www.inkscape.org/namespaces/inkscape"
   xmlns:sodipodi="http://sodipodi.sourceforge.net/DTD/sodipodi-0.dtd"
   xmlns="http://www.w3.org/2000/svg"
   xmlns:svg="http://www.w3.org/2000/svg">
  <defs
     id="defs25170">
    <filter
       style="color-interpolation-filters:sRGB;"
       inkscape:label="Invert"
       id="filter25963"
       x="0"
       y="0"
       width="1"
       height="1">
      <feColorMatrix
         values="0 0 -1 0 1 0 -1 0 0 1 -1 0 0 0 1 -0.21 -0.72 -0.07 1 0 "
         result="color2"
         id="feColorMatrix25961" />
    </filter>
    <filter
       style="color-interpolation-filters:sRGB;"
       inkscape:label="Invert"
       id="filter25967"
       x="0"
       y="0"
       width="1"
       height="1">
      <feColorMatrix
         values="0 0 -1 0 1 0 -1 0 0 1 -1 0 0 0 1 -0.21 -0.72 -0.07 1 0 "
         result="color2"
         id="feColorMatrix25965" />
    </filter>
    <filter
       style="color-interpolation-filters:sRGB;"
       inkscape:label="Invert"
       id="filter25989"
       x="0"
       y="0"
       width="1"
       height="1">
      <feColorMatrix
         values="0 0 -1 0 1 0 -1 0 0 1 -1 0 0 0 1 -0.21 -0.72 -0.07 1 0 "
         result="color2"
         id="feColorMatrix25987" />
    </filter>
  </defs>
  <sodipodi:namedview
     id="namedview25168"
     pagecolor="#ffffff"
     bordercolor="#666666"
     borderopacity="1.0"
     inkscape:pageshadow="2"
     inkscape:pageopacity="0.0"
     inkscape:pagecheckerboard="0"
     showgrid="false"
     inkscape:zoom="1.45"
     inkscape:cx="187.24138"
     inkscape:cy="280.34483"
     inkscape:window-width="1920"
     inkscape:window-height="1001"
     inkscape:window-x="-9"
     inkscape:window-y="-9"
     inkscape:window-maximized="1"
     inkscape:current-layer="games" />
  <style
     type="text/css"
     id="style25132"><![CDATA[
	.st0{fill:url(#SVGID_1_);}
	.st1{fill:#FFFFFF;}
]]></style>
  <linearGradient
     id="SVGID_1_"
     gradientUnits="userSpaceOnUse"
     x1="229.2426758"
     y1="210.8144531"
     x2="229.2426605"
     y2="722.8149414"
     gradientTransform="matrix(1.09375 0 0 1.09375 229.265625 -230.578125)">
    <stop
       offset="0"
       style="stop-color:#F4B113"
       id="stop25134" />
    <stop
       offset="0.1749831"
       style="stop-color:#EBAB15"
       id="stop25136" />
    <stop
       offset="0.4659598"
       style="stop-color:#D19A19"
       id="stop25138" />
    <stop
       offset="0.8347928"
       style="stop-color:#A88020"
       id="stop25140" />
    <stop
       offset="0.994382"
       style="stop-color:#947323"
       id="stop25142" />
  </linearGradient>
  <rect
     x="200"
     class="st0"
     width="560"
     height="560"
     id="rect25145"
     y="0"
     style="display:inline" />
  <g
     id="g25165" />
  <g
     transform="matrix(0.07707321,0,0,-0.07664496,262.71969,485.08201)"
     fill="#000000"
     stroke="none"
     id="g25916">
    <path
       d="M 1365,5154 C 884,5068 497,4712 375,4244 331,4075 328,3976 333,2665 c 3,-1204 4,-1232 24,-1325 111,-501 467,-858 973,-976 66,-15 150,-18 691,-21 560,-4 618,-3 633,12 15,15 16,208 16,2396 0,1622 -3,2386 -10,2400 -10,18 -27,19 -613,18 -476,-1 -619,-4 -682,-15 z M 2270,2754 V 728 l -407,5 c -375,4 -415,6 -490,25 -322,83 -561,331 -628,654 -22,101 -22,2589 -1,2688 60,281 255,514 518,619 132,53 193,59 621,60 l 387,1 z"
       id="path25910"
       style="filter:url(#filter25967)" />
    <path
       d="m 1451,4169 c -63,-12 -159,-60 -210,-105 -105,-91 -157,-220 -149,-372 4,-79 9,-100 41,-164 47,-97 118,-168 215,-216 67,-33 84,-37 171,-40 79,-3 107,0 160,18 217,73 348,284 311,500 -43,257 -287,429 -539,379 z"
       id="path25912"
       style="filter:url(#filter25989)" />
    <path
       d="m 3157,5163 c -4,-3 -7,-1087 -7,-2409 0,-2181 1,-2402 16,-2408 27,-10 803,-6 899,4 406,46 764,293 959,660 25,47 58,126 75,175 63,188 61,138 61,1575 0,1147 -2,1318 -16,1391 -99,521 -496,914 -1018,1004 -70,12 -178,15 -526,15 -240,0 -440,-3 -443,-7 z M 4225,2985 c 156,-41 284,-160 336,-312 33,-94 32,-232 -1,-318 -61,-158 -181,-269 -335,-310 -250,-65 -516,86 -589,334 -22,76 -21,204 4,282 75,245 335,389 585,324 z"
       id="path25914"
       style="filter:url(#filter25963)" />
  </g>
</svg>
