<?xml version="1.0" encoding="UTF-8" standalone="no"?>
<svg
   version="1.1"
   id="svg24489"
   viewBox="200 0 560 560"
   sodipodi:docname="anime2.svg"
   inkscape:version="1.1.1 (3bf5ae0d25, 2021-09-20)"
   xmlns:inkscape="http://www.inkscape.org/namespaces/inkscape"
   xmlns:sodipodi="http://sodipodi.sourceforge.net/DTD/sodipodi-0.dtd"
   xmlns="http://www.w3.org/2000/svg"
   xmlns:svg="http://www.w3.org/2000/svg">
  <defs
     id="defs24493">
    <filter
       style="color-interpolation-filters:sRGB;"
       inkscape:label="Invert"
       id="filter24792"
       x="0"
       y="0"
       width="1"
       height="1">
      <feColorMatrix
         values="1 0 0 0 0 0 1 0 0 0 0 0 1 0 0 -0.21 -0.72 -0.07 2 0 "
         result="fbSourceGraphic"
         id="feColorMatrix24790" />
      <feColorMatrix
         result="fbSourceGraphicAlpha"
         in="fbSourceGraphic"
         values="0 0 0 -1 0 0 0 0 -1 0 0 0 0 -1 0 0 0 0 1 0"
         id="feColorMatrix24812" />
      <feColorMatrix
         id="feColorMatrix24814"
         values="1 0 0 0 0 0 1 0 0 0 0 0 1 0 0 -0.21 -0.72 -0.07 2 0 "
         result="fbSourceGraphic"
         in="fbSourceGraphic" />
      <feColorMatrix
         result="fbSourceGraphicAlpha"
         in="fbSourceGraphic"
         values="0 0 0 -1 0 0 0 0 -1 0 0 0 0 -1 0 0 0 0 1 0"
         id="feColorMatrix24990" />
      <feColorMatrix
         id="feColorMatrix24992"
         values="0 0 -1 0 1 0 -1 0 0 1 -1 0 0 0 1 -0.21 -0.72 -0.07 1 0 "
         result="color2"
         in="fbSourceGraphic" />
    </filter>
  </defs>
  <sodipodi:namedview
     id="namedview24491"
     pagecolor="#ffffff"
     bordercolor="#666666"
     borderopacity="1.0"
     inkscape:pageshadow="2"
     inkscape:pageopacity="0.0"
     inkscape:pagecheckerboard="0"
     showgrid="false"
     inkscape:zoom="1.45"
     inkscape:cx="187.24138"
     inkscape:cy="280.34483"
     inkscape:window-width="1920"
     inkscape:window-height="1001"
     inkscape:window-x="-9"
     inkscape:window-y="-9"
     inkscape:window-maximized="1"
     inkscape:current-layer="" />
  <style
     type="text/css"
     id="style24471"><![CDATA[
	.st0{fill:url(#SVGID_1_);}
	.st1{fill:#FFFFFF;}
]]></style>
  <g
     id="">
    <linearGradient
       id="SVGID_1_"
       gradientUnits="userSpaceOnUse"
       x1="179.24316"
       y1="537.18652"
       x2="179.24315"
       y2="25.186523"
       gradientTransform="matrix(1.09375,0,0,-1.09375,283.95313,587.54687)">
      <stop
         offset="0"
         style="stop-color:#960505"
         id="stop24473" />
      <stop
         offset="0.2937581"
         style="stop-color:#8D0A0A"
         id="stop24475" />
      <stop
         offset="0.7805237"
         style="stop-color:#731919"
         id="stop24477" />
      <stop
         offset="0.994382"
         style="stop-color:#662020"
         id="stop24479" />
    </linearGradient>
    <rect
       x="200"
       class="st0"
       width="560"
       height="560"
       id="rect24482"
       y="0" />
    <path
       d="m 354.71759,190.87436 c 4.44004,2.0182 13.72374,5.65095 13.72374,11.70555 0,3.22911 -3.22911,5.24731 -5.65095,6.45823 v 159.8422 c 0,24.21836 1.61456,48.03308 1.61456,72.25145 0,11.70554 -12.91646,16.14557 -22.60381,16.14557 -5.65095,0 -7.66914,-2.0182 -7.66914,-7.66864 0,-6.05459 0.80727,-11.70605 1.21091,-17.76064 1.61456,-20.18197 0.80728,-40.76758 1.21092,-60.94955 0.40364,-25.42928 0.80728,-51.2627 0.80728,-76.69198 v -75.07693 c -14.53102,25.42928 -31.88751,48.84037 -51.66584,70.63689 l -4.03639,-2.82598 c 25.42928,-37.53846 74.26964,-151.7689 77.09512,-196.169238 6.45823,1.61456 38.34574,10.494628 38.34574,18.567418 0,4.84367 -6.45823,7.66914 -10.49463,8.47642 -9.2837,24.62251 -21.39288,48.84087 -31.88751,73.05923 z m 170.33632,-19.37469 h 76.69149 l 15.33829,-20.18197 c 6.45823,4.44004 31.08074,18.97156 31.08074,26.6402 0,2.82548 -5.24731,3.22912 -6.86238,3.22912 H 529.09031 c 36.73118,43.59305 75.48107,60.94954 130.77966,71.44417 l -1.21092,5.24731 c -14.53102,3.63275 -24.21836,13.3201 -29.06254,27.44748 -40.76757,-17.3565 -81.93879,-58.52822 -104.5426,-96.47032 v 36.32755 c 0,10.49462 1.21042,21.39288 1.21042,31.88751 0,10.49462 -10.89827,15.74193 -20.18197,15.74193 -3.63225,0 -6.45823,-1.21092 -6.45823,-5.24731 0,-23.41108 2.0182,-47.22631 2.0182,-70.6374 -34.71299,42.78628 -77.09563,78.30655 -127.95419,99.69994 l -1.61456,-4.44054 c 48.03309,-31.08023 77.09512,-62.5641 106.96494,-111.00083 h -64.98594 c -6.45823,0 -12.91646,0.80728 -19.37469,1.21092 l -5.65095,-14.12738 c 9.68735,2.0182 19.37469,3.22912 29.06204,3.22912 h 83.55385 v -37.9421 c -5.24681,0.80728 -10.49462,1.61456 -15.74194,2.42183 -28.25475,4.0364 -56.91315,5.24732 -85.57205,8.88007 l -2.01819,-4.44003 c 18.97105,-3.63276 165.89679,-38.34574 170.33682,-50.454918 5.65095,5.24731 33.09843,10.898258 33.09843,24.621998 0,4.84367 -3.22861,6.05459 -7.66915,6.05459 -3.63225,0 -7.265,-0.40364 -10.89826,-2.0182 -19.37469,4.03639 -38.74989,8.07279 -58.12407,11.70554 v 41.17172 z M 372.88137,444.76454 c 48.84086,-4.84418 95.25939,-16.54921 134.81605,-47.22631 -15.33779,-4.84367 -31.08074,-8.88007 -46.82217,-12.51282 -5.24731,6.86237 -10.89826,15.74193 -20.18197,15.74193 -3.63275,0 -18.16377,-1.61455 -18.16377,-6.86187 0,-2.82598 2.42184,-4.84417 4.0364,-6.45873 15.33829,-16.54922 29.46567,-36.73169 40.36393,-56.50951 H 405.9803 c -6.45823,0 -12.91646,0.40364 -19.37469,1.21091 l -5.65095,-14.12788 c 9.68734,2.0182 19.37469,3.22912 29.06203,3.22912 h 61.75683 l 9.2837,-20.18248 c 4.84367,-10.89826 7.66865,-14.93465 8.07279,-27.04383 6.05459,1.61455 36.32754,9.2837 36.32754,18.16377 0,6.86187 -8.88006,7.66915 -14.12737,8.88006 -4.0364,6.45874 -7.66915,13.72425 -11.70555,20.18248 h 98.48852 l 17.35598,-23.00795 c 3.63276,4.84367 34.30986,20.98975 34.30986,29.46567 0,2.82548 -5.24732,3.22912 -6.86238,3.22912 h -72.25145 c 4.84368,1.61405 20.18197,7.26551 20.18197,14.12738 0,6.05459 -6.86237,7.66864 -11.70554,8.47642 -10.09098,15.3383 -20.58611,29.06254 -33.90571,41.57486 20.98976,5.65095 42.78578,12.91696 62.56411,21.79652 9.2837,4.44004 29.06254,11.70555 29.06254,24.21837 0,9.68734 -7.66915,15.33829 -16.95286,15.33829 -12.51332,0 -19.77833,-6.05459 -29.06254,-13.72374 -17.35649,-14.53101 -37.53846,-27.85111 -58.93185,-35.9239 -45.61075,35.52026 -102.12076,42.78628 -158.22714,43.18941 z M 494.78046,330.93773 c -9.68684,16.95285 -18.97105,35.11663 -31.08024,50.45492 17.76014,1.21092 35.52027,4.44054 53.2804,7.66915 8.88057,-8.88057 39.15403,-44.80397 39.15403,-57.31729 v -0.80728 h -61.35419 z"
       id="path5"
       style="display:inline;stroke-width:0.504549;filter:url(#filter24792)"
       transform="matrix(0.8541227,0,0,0.8541227,72.122117,30.154662)" />
  </g>
</svg>
