<?xml version="1.0" encoding="UTF-8" standalone="no"?>
<svg
   version="1.1"
   id="games"
   viewBox="200 0 560 560"
   sodipodi:docname="psgames.svg"
   inkscape:version="1.1.1 (3bf5ae0d25, 2021-09-20)"
   xmlns:inkscape="http://www.inkscape.org/namespaces/inkscape"
   xmlns:sodipodi="http://sodipodi.sourceforge.net/DTD/sodipodi-0.dtd"
   xmlns="http://www.w3.org/2000/svg"
   xmlns:svg="http://www.w3.org/2000/svg">
  <defs
     id="defs26109">
    <filter
       style="color-interpolation-filters:sRGB;"
       inkscape:label="Invert"
       id="filter26930"
       x="0"
       y="0"
       width="1"
       height="1">
      <feColorMatrix
         values="0 0 -1 0 1 0 -1 0 0 1 -1 0 0 0 1 -0.21 -0.72 -0.07 1 0 "
         result="color2"
         id="feColorMatrix26928" />
    </filter>
  </defs>
  <sodipodi:namedview
     id="namedview26107"
     pagecolor="#ffffff"
     bordercolor="#666666"
     borderopacity="1.0"
     inkscape:pageshadow="2"
     inkscape:pageopacity="0.0"
     inkscape:pagecheckerboard="0"
     showgrid="false"
     inkscape:zoom="1.45"
     inkscape:cx="187.24138"
     inkscape:cy="280.34483"
     inkscape:window-width="1920"
     inkscape:window-height="1001"
     inkscape:window-x="-9"
     inkscape:window-y="-9"
     inkscape:window-maximized="1"
     inkscape:current-layer="games" />
  <style
     type="text/css"
     id="style26071"><![CDATA[
	.st0{fill:url(#SVGID_1_);}
	.st1{fill:#FFFFFF;}
]]></style>
  <linearGradient
     id="SVGID_1_"
     gradientUnits="userSpaceOnUse"
     x1="229.2426758"
     y1="210.8144531"
     x2="229.2426605"
     y2="722.8149414"
     gradientTransform="matrix(1.09375 0 0 1.09375 229.265625 -230.578125)">
    <stop
       offset="0"
       style="stop-color:#F4B113"
       id="stop26073" />
    <stop
       offset="0.1749831"
       style="stop-color:#EBAB15"
       id="stop26075" />
    <stop
       offset="0.4659598"
       style="stop-color:#D19A19"
       id="stop26077" />
    <stop
       offset="0.8347928"
       style="stop-color:#A88020"
       id="stop26079" />
    <stop
       offset="0.994382"
       style="stop-color:#947323"
       id="stop26081" />
  </linearGradient>
  <rect
     x="200"
     class="st0"
     width="560"
     height="560"
     id="rect26084"
     y="0" />
  <g
     id="g26092" />
  <g
     id="g26104"
     style="filter:url(#filter26930)"
     transform="matrix(0.97272867,0,0,0.97272867,23.771742,43.452469)">
    <g
       id="g26766"
       transform="matrix(11.373257,0,0,11.373257,41.678607,-94.846656)">
      <g
         id="g26764">
        <path
           d="m 18.2,35.4 c -1.5,1 -1,2.9 2.2,3.8 3.3,1.1 6.9,1.4 10.4,0.8 0.2,0 0.4,-0.1 0.5,-0.1 v -3.4 l -3.4,1.1 C 26.6,38 25.3,38.1 24,37.8 23,37.5 23.2,36.9 24.4,36.4 L 31.3,34 v -3.7 l -9.6,3.3 c -1.2,0.4 -2.4,1 -3.5,1.8 z m 23.2,-15 v 9.7 c 4.1,2 7.3,0 7.3,-5.2 0,-5.3 -1.9,-7.7 -7.4,-9.6 -2.9,-1 -5.9,-1.9 -8.9,-2.5 v 28.9 l 7,2.1 V 19.5 c 0,-1.1 0,-1.9 0.8,-1.6 1.1,0.3 1.2,1.4 1.2,2.5 z m 13,12.7 c -2.9,-1 -6,-1.4 -9,-1.1 -1.6,0.1 -3.1,0.5 -4.5,1 l -0.3,0.1 V 37 l 6.5,-2.4 c 1.3,-0.4 2.6,-0.5 3.9,-0.2 1,0.3 0.8,0.9 -0.4,1.4 l -10,3.7 v 3.8 l 13.8,-5.1 c 1,-0.4 1.9,-0.9 2.7,-1.7 0.7,-1 0.4,-2.4 -2.7,-3.4 z"
           id="path26762" />
      </g>
    </g>
  </g>
</svg>
