<?xml version="1.0" encoding="UTF-8" standalone="no"?>
<svg
   version="1.1"
   id="games"
   viewBox="200 0 560 560"
   sodipodi:docname="xbgames2.svg"
   inkscape:version="1.1.1 (3bf5ae0d25, 2021-09-20)"
   xmlns:inkscape="http://www.inkscape.org/namespaces/inkscape"
   xmlns:sodipodi="http://sodipodi.sourceforge.net/DTD/sodipodi-0.dtd"
   xmlns="http://www.w3.org/2000/svg"
   xmlns:svg="http://www.w3.org/2000/svg">
  <defs
     id="defs28269">
    <filter
       style="color-interpolation-filters:sRGB;"
       inkscape:label="Invert"
       id="filter29168"
       x="0"
       y="0"
       width="1"
       height="1">
      <feColorMatrix
         values="0 0 -1 0 1 0 -1 0 0 1 -1 0 0 0 1 -0.21 -0.72 -0.07 1 0 "
         result="color2"
         id="feColorMatrix29166" />
    </filter>
  </defs>
  <sodipodi:namedview
     id="namedview28267"
     pagecolor="#ffffff"
     bordercolor="#666666"
     borderopacity="1.0"
     inkscape:pageshadow="2"
     inkscape:pageopacity="0.0"
     inkscape:pagecheckerboard="0"
     showgrid="false"
     inkscape:zoom="1.45"
     inkscape:cx="187.24138"
     inkscape:cy="280.34483"
     inkscape:window-width="1920"
     inkscape:window-height="1001"
     inkscape:window-x="-9"
     inkscape:window-y="-9"
     inkscape:window-maximized="1"
     inkscape:current-layer="games" />
  <style
     type="text/css"
     id="style28231"><![CDATA[
	.st0{fill:url(#SVGID_1_);}
	.st1{fill:#FFFFFF;}
]]></style>
  <linearGradient
     id="SVGID_1_"
     gradientUnits="userSpaceOnUse"
     x1="229.2426758"
     y1="210.8144531"
     x2="229.2426605"
     y2="722.8149414"
     gradientTransform="matrix(1.09375 0 0 1.09375 229.265625 -230.578125)">
    <stop
       offset="0"
       style="stop-color:#F4B113"
       id="stop28233" />
    <stop
       offset="0.1749831"
       style="stop-color:#EBAB15"
       id="stop28235" />
    <stop
       offset="0.4659598"
       style="stop-color:#D19A19"
       id="stop28237" />
    <stop
       offset="0.8347928"
       style="stop-color:#A88020"
       id="stop28239" />
    <stop
       offset="0.994382"
       style="stop-color:#947323"
       id="stop28241" />
  </linearGradient>
  <rect
     x="200"
     class="st0"
     width="560"
     height="560"
     id="rect28244"
     y="0"
     style="display:inline" />
  <path
     style="fill:#000000;filter:url(#filter29168)"
     d="m 462.78986,464.91015 c -28.68314,-2.74713 -57.72301,-13.04799 -82.6694,-29.32404 -20.90434,-13.63883 -25.62501,-19.24553 -25.62501,-30.43459 0,-22.47524 24.71192,-61.84014 66.9925,-106.71584 24.01246,-25.48631 57.46022,-55.36001 61.0775,-54.55105 7.0309,1.57238 63.25048,56.41053 84.29655,82.2252 33.28077,40.82148 48.58095,74.24535 40.808,89.14682 -5.9087,11.32753 -42.57224,33.4669 -69.50775,41.97242 -22.19984,7.01011 -51.35538,9.9813 -75.37239,7.68108 z M 326.26175,381.78371 c -17.37104,-26.64954 -26.14746,-52.88568 -30.38477,-90.83194 -1.39917,-12.53 -0.89778,-19.69701 3.17715,-45.41515 5.07882,-32.05404 23.33301,-69.13638 45.26713,-91.95761 9.34191,-9.71973 10.17624,-9.95654 21.56341,-6.12048 13.82836,4.65843 28.59594,14.85745 51.49837,35.56661 l 13.36254,12.08287 -7.2969,8.96431 c -33.87245,41.61262 -69.62968,100.59709 -83.10549,137.0893 -7.32599,19.83862 -10.28084,39.75281 -7.12868,48.04363 2.12818,5.59752 0.17339,3.51093 -6.95276,-7.42154 z m 304.91543,4.53255 c 1.71605,-8.37719 -0.4544,-23.76257 -5.5413,-39.28002 C 614.61921,313.43026 577.79624,250.91203 543.98306,208.4057 L 533.33874,195.02479 544.8546,184.4507 c 15.03631,-13.80664 25.47602,-22.07384 36.74025,-29.09451 8.88881,-5.54016 21.59109,-10.44456 27.05113,-10.44456 3.36626,0 15.21723,12.29872 24.78421,25.72061 14.81725,20.78771 25.71782,45.98697 31.24045,72.21968 3.56833,16.9498 3.8657,53.23126 0.57486,70.13935 -2.70068,13.87582 -8.40314,31.87484 -13.9661,44.08195 -4.16823,9.14657 -14.53521,26.91044 -19.0783,32.69074 -2.33569,2.97175 -2.33761,2.96527 -1.02393,-3.4477 z M 465.86092,138.56573 c -15.60147,-7.92267 -39.6696,-16.42717 -52.96493,-18.71521 -4.66097,-0.80213 -12.61193,-1.24948 -17.6688,-0.99412 -10.96961,0.55394 -10.47966,-0.0197 7.11783,-8.33366 14.63023,-6.91209 26.83386,-10.9767 43.40044,-14.455222 18.6362,-3.913086 53.66559,-3.959009 72.00507,-0.0944 19.80818,4.174102 43.13297,12.854082 56.27623,20.942392 l 3.90633,2.40392 -8.96247,-0.45258 c -17.81002,-0.89937 -43.76575,6.29588 -71.63269,19.85746 -8.40538,4.09052 -15.71788,7.35751 -16.25,7.25997 -0.53211,-0.0975 -7.38426,-3.43589 -15.22701,-7.41856 z"
     id="path4148"
     inkscape:connector-curvature="0" />
  <g
     id="g28252"
     style="display:inline" />
  <g
     id="g28264"
     style="display:inline" />
</svg>
