<?xml version="1.0" encoding="UTF-8" standalone="no"?>
<svg
   version="1.1"
   id="Layer_1"
   viewBox="200 0 512 512"
   sodipodi:docname="bluray.svg"
   inkscape:version="1.1.1 (3bf5ae0d25, 2021-09-20)"
   xmlns:inkscape="http://www.inkscape.org/namespaces/inkscape"
   xmlns:sodipodi="http://sodipodi.sourceforge.net/DTD/sodipodi-0.dtd"
   xmlns="http://www.w3.org/2000/svg"
   xmlns:svg="http://www.w3.org/2000/svg">
  <defs
     id="defs24061" />
  <sodipodi:namedview
     id="namedview24059"
     pagecolor="#ffffff"
     bordercolor="#666666"
     borderopacity="1.0"
     inkscape:pageshadow="2"
     inkscape:pageopacity="0.0"
     inkscape:pagecheckerboard="0"
     showgrid="false"
     inkscape:zoom="1.5859375"
     inkscape:cx="171.19212"
     inkscape:cy="244.33498"
     inkscape:window-width="1920"
     inkscape:window-height="1001"
     inkscape:window-x="-9"
     inkscape:window-y="-9"
     inkscape:window-maximized="1"
     inkscape:current-layer="g24056" />
  <style
     type="text/css"
     id="style24012"><![CDATA[
	.st0{display:none;fill:#FFFFFF;}
	.st1{fill:url(#SVGID_1_);}
	.st2{fill:#FFFFFF;}
]]></style>
  <g
     id="g24056">
    <linearGradient
       id="SVGID_1_"
       gradientUnits="userSpaceOnUse"
       x1="157.30029"
       y1="537.18652"
       x2="157.30028"
       y2="69.072266"
       gradientTransform="matrix(1.09375,0,0,-1.09375,283.95313,587.54687)">
      <stop
         offset="0"
         style="stop-color:#047FF1"
         id="stop24014" />
      <stop
         offset="0.1764294"
         style="stop-color:#077BE8"
         id="stop24016" />
      <stop
         offset="0.4696989"
         style="stop-color:#0E72CE"
         id="stop24018" />
      <stop
         offset="0.841405"
         style="stop-color:#1A62A5"
         id="stop24020" />
      <stop
         offset="0.994382"
         style="stop-color:#205B92"
         id="stop24022" />
    </linearGradient>
    <rect
       x="200"
       class="st1"
       width="512"
       height="512"
       id="rect24025"
       y="0"
       style="display:inline" />
    <path
       fill="#0095d5"
       d="m 268.23138,152.71634 c -0.48198,0 -0.48198,0.24447 -0.72299,0.48199 -20.93168,29.35256 -33.2015,48.84175 -46.19603,72.90112 l -1.44248,2.64573 -0.24274,0.96397 c -1.20149,2.40819 -0.96223,5.05218 0.72299,7.21765 7.69789,12.02882 50.76622,26.22484 146.76451,26.22484 71.6979,0 147.96772,-11.54857 147.96772,-33.19976 0,-20.45317 -75.0666,-32.72127 -147.96772,-32.72127 -24.30211,0 -48.12051,3.12773 -54.8579,4.33094 6.49639,-10.10608 33.92448,-46.92074 33.92448,-47.15826 0.48024,-0.48025 0.48024,-0.48025 0.48024,-0.72124 v -0.48025 c -0.48024,-0.24099 -0.72124,-0.482 -1.20148,-0.482 z m 27.90832,77.2338 c 0,-4.33093 27.18883,-10.58634 70.97667,-10.58634 43.78784,0 70.73741,6.25541 70.73741,10.58634 0,4.80945 -26.94784,10.82559 -70.73741,10.82559 -43.78958,9.3e-4 -70.97667,-6.01266 -70.97667,-10.82559 z"
       id="path16356"
       style="display:inline;fill:#ffffff;fill-opacity:1;stroke-width:1.73376" />
    <path
       fill="#0095d5"
       d="m 322.60555,337.98071 c 12.26982,0.24101 357.53076,12.26809 365.23211,-110.19604 6.25195,-101.29493 -247.82016,-91.66909 -247.82016,-91.66909 -0.47852,0 -2.16372,0 -2.16372,1.2015 0,1.44422 0.72124,1.68696 1.6852,1.68696 70.49295,0 185.02165,28.14759 181.41197,88.78063 -2.88845,49.08275 -92.39033,106.82389 -298.34367,106.82389 -0.96224,0 -1.92446,0.96396 -1.92446,1.6852 -9.2e-4,0.72471 0.7195,1.44595 1.92273,1.68695 z"
       id="path16358"
       style="display:inline;fill:#ffffff;fill-opacity:1;stroke-width:1.73376" />
    <g
       id=""
       style="display:inline">
      <g
         id="g24053" />
    </g>
  </g>
</svg>
