<?xml version="1.0" encoding="UTF-8" standalone="no"?>
<svg
   sodipodi:docname="bluray.svg"
   viewBox="200 0 560 560"
   id="Layer_1"
   version="1.1"
   inkscape:version="1.1.1 (3bf5ae0d25, 2021-09-20)"
   xmlns:inkscape="http://www.inkscape.org/namespaces/inkscape"
   xmlns:sodipodi="http://sodipodi.sourceforge.net/DTD/sodipodi-0.dtd"
   xmlns:xlink="http://www.w3.org/1999/xlink"
   xmlns="http://www.w3.org/2000/svg"
   xmlns:svg="http://www.w3.org/2000/svg">
  <defs
     id="defs233">
    <linearGradient
       inkscape:collect="always"
       xlink:href="#SVGID_1_"
       id="linearGradient21914"
       x1="199.5"
       y1="280"
       x2="760.5"
       y2="280"
       gradientUnits="userSpaceOnUse" />
  </defs>
  <sodipodi:namedview
     id="namedview231"
     pagecolor="#ffffff"
     bordercolor="#666666"
     borderopacity="1.0"
     inkscape:pageshadow="2"
     inkscape:pageopacity="0.0"
     inkscape:pagecheckerboard="0"
     showgrid="false"
     inkscape:zoom="1.3982143"
     inkscape:cx="143.75479"
     inkscape:cy="279.2848"
     inkscape:window-width="1920"
     inkscape:window-height="1001"
     inkscape:window-x="-9"
     inkscape:window-y="-9"
     inkscape:window-maximized="1"
     inkscape:current-layer="g218" />
  <style
     type="text/css"
     id="style201"><![CDATA[
	.st0{fill:url(#SVGID_1_);}
	.st1{fill:#FFFFFF;}
]]></style>
  <g
     id="g218"
     style="display:inline"
     transform="translate(0,-5.0063857)">
    <linearGradient
       id="SVGID_1_"
       gradientUnits="userSpaceOnUse"
       x1="179.24316"
       y1="537.18652"
       x2="179.24315"
       y2="25.186523"
       gradientTransform="matrix(1.09375,0,0,-1.09375,283.95313,587.54687)">
      <stop
         offset="0"
         style="stop-color:#FA76EC"
         id="stop203" />
      <stop
         offset="1"
         style="stop-color:#93568D"
         id="stop205" />
    </linearGradient>
    <rect
       x="200"
       class="st0"
       width="560"
       height="560"
       id="rect208"
       y="0"
       style="display:inline;mix-blend-mode:normal;fill:#000060;fill-opacity:0.9653846;stroke:url(#linearGradient21914)"
       inkscape:label="rect208" />
  </g>
  <path
     fill="#0095d5"
     d="m 280.67448,158.17975 c -0.52344,0 -0.52344,0.2655 -0.78518,0.52345 -22.73244,31.87777 -36.05784,53.04362 -50.17029,79.17283 l -1.56658,2.87334 -0.26362,1.0469 c -1.30486,2.61537 -1.04501,5.48682 0.78519,7.83859 8.36014,13.06366 55.13365,28.48097 159.3907,28.48097 77.86609,0 160.69743,-12.5421 160.69743,-36.05594 0,-22.21277 -81.5246,-35.53629 -160.69743,-35.53629 -26.39283,0 -52.26033,3.3968 -59.57734,4.70353 7.05528,-10.97551 36.84301,-50.95735 36.84301,-51.2153 0.52156,-0.52157 0.52156,-0.52157 0.52156,-0.78329 v -0.52157 c -0.52156,-0.26172 -0.78329,-0.52346 -1.30485,-0.52346 z m 30.30929,83.87825 c 0,-4.70353 29.52789,-11.49709 77.08281,-11.49709 47.55492,0 76.82297,6.79356 76.82297,11.49709 0,5.22321 -29.26617,11.75692 -76.82297,11.75692 -47.55681,0.001 -77.08281,-6.52994 -77.08281,-11.75692 z"
     id="path16356"
     style="display:inline;fill:#ffffff;fill-opacity:1;stroke-width:1.88292" />
  <path
     fill="#0095d5"
     d="m 339.72648,359.38247 c 13.3254,0.26174 388.28924,13.32352 396.65314,-119.67624 6.78981,-110.00936 -269.1402,-99.55541 -269.1402,-99.55541 -0.51969,0 -2.34987,0 -2.34987,1.30487 0,1.56846 0.78329,1.83208 1.83018,1.83208 76.55748,0 200.93912,30.56914 197.0189,96.41846 -3.13695,53.30535 -100.3387,116.01398 -324.01027,116.01398 -1.04502,0 -2.09002,1.04689 -2.09002,1.83018 -0.001,0.78706 0.7814,1.57035 2.08814,1.83208 z"
     id="path16358"
     style="display:inline;fill:#ffffff;fill-opacity:1;stroke-width:1.88292" />
  <g
     id="g228"
     style="display:inline" />
</svg>
