<?xml version="1.0" encoding="UTF-8" standalone="no"?>
<svg
   sodipodi:docname="bluray.svg"
   viewBox="200 0 560 560"
   id="Layer_1"
   version="1.1"
   inkscape:version="1.1.1 (3bf5ae0d25, 2021-09-20)"
   xmlns:inkscape="http://www.inkscape.org/namespaces/inkscape"
   xmlns:sodipodi="http://sodipodi.sourceforge.net/DTD/sodipodi-0.dtd"
   xmlns:xlink="http://www.w3.org/1999/xlink"
   xmlns="http://www.w3.org/2000/svg"
   xmlns:svg="http://www.w3.org/2000/svg">
  <defs
     id="defs233">
    <linearGradient
       inkscape:collect="always"
       id="linearGradient19154">
      <stop
         style="stop-color:#000000;stop-opacity:1;"
         offset="0"
         id="stop19150" />
      <stop
         style="stop-color:#000000;stop-opacity:0;"
         offset="1"
         id="stop19152" />
    </linearGradient>
    <linearGradient
       inkscape:collect="always"
       xlink:href="#linearGradient19154"
       id="linearGradient19156"
       x1="200"
       y1="280"
       x2="760"
       y2="280"
       gradientUnits="userSpaceOnUse" />
  </defs>
  <sodipodi:namedview
     id="namedview231"
     pagecolor="#ffffff"
     bordercolor="#666666"
     borderopacity="1.0"
     inkscape:pageshadow="2"
     inkscape:pageopacity="0.0"
     inkscape:pagecheckerboard="0"
     showgrid="false"
     inkscape:zoom="1.3982143"
     inkscape:cx="143.75479"
     inkscape:cy="279.2848"
     inkscape:window-width="1920"
     inkscape:window-height="1001"
     inkscape:window-x="-9"
     inkscape:window-y="-9"
     inkscape:window-maximized="1"
     inkscape:current-layer="Layer_1" />
  <style
     type="text/css"
     id="style201"><![CDATA[
	.st0{fill:url(#SVGID_1_);}
	.st1{fill:#FFFFFF;}
]]></style>
  <g
     id="g218"
     style="display:inline"
     transform="translate(0,-5.0063857)">
    <linearGradient
       id="SVGID_1_"
       gradientUnits="userSpaceOnUse"
       x1="179.24316"
       y1="537.18652"
       x2="179.24315"
       y2="25.186523"
       gradientTransform="matrix(1.09375,0,0,-1.09375,283.95313,587.54687)">
      <stop
         offset="0"
         style="stop-color:#FA76EC"
         id="stop203" />
      <stop
         offset="1"
         style="stop-color:#93568D"
         id="stop205" />
    </linearGradient>
    <rect
       x="200"
       class="st0"
       width="560"
       height="560"
       id="rect208"
       y="0"
       style="display:inline;fill:#000080;fill-opacity:1;stroke:url(#linearGradient19156)"
       inkscape:label="rect208" />
  </g>
  <path
     fill="#0095d5"
     d="m 322.53708,130.80245 c -0.41542,0 -0.41542,0.21071 -0.62314,0.41543 -18.04101,25.29896 -28.61636,42.09669 -39.81634,62.83346 l -1.24328,2.28035 -0.20921,0.83084 c -1.03557,2.07562 -0.82935,4.35447 0.62314,6.22089 6.63481,10.36764 43.75539,22.60319 126.49628,22.60319 61.7964,0 127.53334,-9.95372 127.53334,-28.61487 0,-17.62858 -64.69988,-28.20244 -127.53334,-28.20244 -20.94598,0 -41.47505,2.69577 -47.282,3.73283 5.59924,-8.71043 29.23949,-40.44097 29.23949,-40.64569 0.41393,-0.41393 0.41393,-0.41393 0.41393,-0.62164 v -0.41393 c -0.41393,-0.20771 -0.62164,-0.41543 -1.03557,-0.41543 z m 24.05418,66.56779 c 0,-3.73283 23.43404,-9.12436 61.17476,-9.12436 37.74073,0 60.96855,5.39153 60.96855,9.12436 0,4.14527 -23.22633,9.33058 -60.96855,9.33058 -37.74222,0.001 -61.17476,-5.18232 -61.17476,-9.33058 z"
     id="path16356"
     style="display:inline;stroke-width:1.49433" />
  <path
     fill="#0095d5"
     d="m 369.40216,290.48176 c 10.57536,0.20772 308.15565,10.57386 314.79345,-94.97793 5.38855,-87.30607 -213.59612,-79.00956 -213.59612,-79.00956 -0.41244,0 -1.86492,0 -1.86492,1.03557 0,1.24477 0.62164,1.45398 1.45248,1.45398 60.75785,0 159.47011,24.2604 156.35892,76.52001 -2.48955,42.3044 -79.6312,92.07147 -257.14231,92.07147 -0.82935,0 -1.6587,0.83084 -1.6587,1.45248 -10e-4,0.62463 0.62014,1.24627 1.6572,1.45398 z"
     id="path16358"
     style="display:inline;stroke-width:1.49433" />
  <g
     id="g228"
     style="display:inline">
    <text
       xml:space="preserve"
       style="font-size:106.667px;line-height:1.25;font-family:sans-serif;display:inline"
       x="244.34224"
       y="492.77139"
       id="text10726"><tspan
         sodipodi:role="line"
         id="tspan10724"
         x="244.34224"
         y="492.77139"
         style="font-size:106.667px;fill:#ffffff;fill-opacity:1">BLU-RAY</tspan></text>
  </g>
</svg>
